<svg width="16" height="16" viewBox="0 0 16 16" fill="none" xmlns="http://www.w3.org/2000/svg">
<g id="Backup / 24 / Outline">
<path id="Vector" d="M7.99967 1.33398C6.2906 1.33886 4.64867 1.99993 3.41301 3.18065V2.00065C3.41301 1.82384 3.34277 1.65427 3.21775 1.52925C3.09272 1.40422 2.92315 1.33398 2.74634 1.33398C2.56953 1.33398 2.39996 1.40422 2.27494 1.52925C2.14991 1.65427 2.07967 1.82384 2.07967 2.00065V5.00065C2.07967 5.17746 2.14991 5.34703 2.27494 5.47206C2.39996 5.59708 2.56953 5.66732 2.74634 5.66732H5.74634C5.92315 5.66732 6.09272 5.59708 6.21775 5.47206C6.34277 5.34703 6.41301 5.17746 6.41301 5.00065C6.41301 4.82384 6.34277 4.65427 6.21775 4.52925C6.09272 4.40422 5.92315 4.33398 5.74634 4.33398H4.14634C5.00353 3.43822 6.14601 2.86909 7.37736 2.72443C8.60872 2.57977 9.852 2.86863 10.8934 3.54135C11.9349 4.21406 12.7094 5.22859 13.0839 6.41051C13.4584 7.59243 13.4093 8.86789 12.9453 10.0176C12.4812 11.1673 11.6311 12.1194 10.5411 12.7102C9.45111 13.301 8.18933 13.4936 6.97271 13.2549C5.75609 13.0161 4.66065 12.361 3.87474 11.4021C3.08882 10.4432 2.66153 9.24046 2.66634 8.00065C2.66634 7.82384 2.5961 7.65427 2.47108 7.52925C2.34605 7.40422 2.17649 7.33398 1.99967 7.33398C1.82286 7.33398 1.65329 7.40422 1.52827 7.52925C1.40325 7.65427 1.33301 7.82384 1.33301 8.00065C1.33301 9.31919 1.724 10.6081 2.45654 11.7045C3.18909 12.8008 4.23028 13.6553 5.44845 14.1598C6.66663 14.6644 8.00707 14.7965 9.30028 14.5392C10.5935 14.282 11.7814 13.647 12.7137 12.7147C13.6461 11.7823 14.281 10.5945 14.5382 9.30125C14.7955 8.00805 14.6635 6.6676 14.1589 5.44943C13.6543 4.23125 12.7998 3.19006 11.7035 2.45752C10.6071 1.72498 9.31822 1.33398 7.99967 1.33398ZM7.99967 5.33398C7.82286 5.33398 7.65329 5.40422 7.52827 5.52925C7.40325 5.65427 7.33301 5.82384 7.33301 6.00065V8.00065C7.33301 8.17746 7.40325 8.34703 7.52827 8.47206C7.65329 8.59708 7.82286 8.66732 7.99967 8.66732H9.33301C9.50982 8.66732 9.67939 8.59708 9.80441 8.47206C9.92944 8.34703 9.99967 8.17746 9.99967 8.00065C9.99967 7.82384 9.92944 7.65427 9.80441 7.52925C9.67939 7.40422 9.50982 7.33398 9.33301 7.33398H8.66634V6.00065C8.66634 5.82384 8.5961 5.65427 8.47108 5.52925C8.34606 5.40422 8.17649 5.33398 7.99967 5.33398Z" fill="#ABABAB"/>
</g>
</svg>
