<svg width="28" height="28" fill="none" xmlns="http://www.w3.org/2000/svg"><path d="M21 15.377v-3.71a7 7 0 0 0-5.834-6.895V3.501a1.167 1.167 0 1 0-2.333 0v1.271A7 7 0 0 0 7 11.667v3.71a3.5 3.5 0 0 0-2.333 3.29v2.334a1.167 1.167 0 0 0 1.166 1.166h3.663a4.667 4.667 0 0 0 9.007 0h3.663a1.167 1.167 0 0 0 1.167-1.166v-2.334A3.5 3.5 0 0 0 21 15.377Zm-11.667-3.71a4.667 4.667 0 1 1 9.333 0v3.5H9.333v-3.5ZM14 23.334a2.335 2.335 0 0 1-2.007-1.167h4.013A2.333 2.333 0 0 1 14 23.334Zm7-3.5H7v-1.167a1.167 1.167 0 0 1 1.166-1.166h11.667A1.167 1.167 0 0 1 21 18.667v1.167Z" fill="#fff"/></svg>