<svg width="28" height="28" fill="none" xmlns="http://www.w3.org/2000/svg"><path d="M21 15.377v-3.71a7 7 0 0 0-5.833-6.895V3.5a1.167 1.167 0 1 0-2.334 0v1.272A7 7 0 0 0 7 11.667v3.71a3.5 3.5 0 0 0-2.333 3.29V21a1.167 1.167 0 0 0 1.166 1.167h3.664a4.666 4.666 0 0 0 9.006 0h3.664A1.167 1.167 0 0 0 23.333 21v-2.333A3.5 3.5 0 0 0 21 15.377Zm-11.667-3.71a4.667 4.667 0 1 1 9.334 0v3.5H9.333v-3.5ZM14 23.333a2.333 2.333 0 0 1-2.007-1.166h4.014A2.333 2.333 0 0 1 14 23.333Zm7-3.5H7v-1.166A1.167 1.167 0 0 1 8.167 17.5h11.666A1.167 1.167 0 0 1 21 18.667v1.166Z" fill="#FFB900"/></svg>