<svg xmlns="http://www.w3.org/2000/svg" width="92" height="107" fill="none"><g clip-path="url(#a)"><path fill="#001E64" d="M63.413 71.285H28.148V107h35.265V71.285Z"/><path fill="#003C96" d="M63.413-.145H28.148V35.57h35.265V-.145ZM28.147-.145H-7.118V35.57h35.265V-.145ZM98.677 35.57H63.412v35.715h35.265V35.57Z"/><path fill="#003C96" d="M63.413 35.57H28.148v35.715h35.265V35.57ZM28.147 71.285H-7.118V107h35.265V71.285Z"/><path fill="#001E64" d="M28.147 35.57H-7.118v35.715h35.265V35.57Z"/><path fill="#003C96" d="M98.677-.145H63.412V35.57h35.265V-.145ZM98.677 71.285H63.412V107h35.265V71.285Z"/><path fill="#00BE64" d="M34.959 22.374c1.79 4.26 5.962 7.241 10.82 7.245-1.79-4.26-5.961-7.245-10.82-7.245Z"/><path fill="#FFB900" d="M54.596 14.74c0 4.932-3.945 8.928-8.816 8.928-4.87 0-8.816-3.996-8.816-8.929 0-4.932 3.946-8.928 8.816-8.928 4.87 0 8.816 3.996 8.816 8.928Z"/><path fill="#00BE64" d="M45.78 29.62c3.569 0 6.64-2.149 8.027-5.236-3.565-.004-6.641 2.147-8.028 5.235Z"/><path fill="#003C96" d="M50.187 14.74c0 2.466-1.972 4.464-4.408 4.464-2.435 0-4.408-1.998-4.408-4.465 0-2.466 1.973-4.464 4.408-4.464 2.435 0 4.408 1.998 4.408 4.464Z"/><path fill="#001E64" d="M81.046 71.285c9.736 0 17.632-7.996 17.632-17.857 0-9.861-7.895-17.858-17.632-17.858-9.737 0-17.633 7.997-17.633 17.858 0 9.86 7.896 17.857 17.633 17.857Zm0-26.786c4.87 0 8.816 3.996 8.816 8.929 0 4.932-3.946 8.928-8.816 8.928-4.87 0-8.817-3.996-8.817-8.928 0-4.933 3.946-8.929 8.817-8.929Z"/><path fill="#00BE64" d="M-7.118 35.57c9.737 0 17.632-7.996 17.632-17.857C10.514 7.852 2.62-.145-7.118-.145V35.57Z"/><path fill="#fff" d="M28.146-.145c-9.736 0-17.632 7.997-17.632 17.858 0 9.86 7.896 17.857 17.632 17.857V-.145Z"/><path fill="#00BE64" d="M10.514 98.071c-4.87 0-8.817-3.996-8.817-8.928 0-4.933 3.946-8.93 8.817-8.93 4.87 0 8.816 3.997 8.816 8.93 0 4.932-3.946 8.928-8.816 8.928Z"/><path fill="#FF7500" d="M28.147 35.57C8.67 35.57-7.118 51.56-7.118 71.285c19.477 0 35.265-15.989 35.265-35.715Z"/><path fill="#FFB900" d="M81.046 26.642c-4.87 0-8.817-3.997-8.817-8.93 0-4.931 3.947-8.928 8.817-8.928s8.816 3.996 8.816 8.929c0 4.932-3.95 8.929-8.816 8.929ZM89.861 107c4.87 0 8.816-3.996 8.816-8.929 0-4.932-3.945-8.928-8.816-8.928-4.87 0-8.816 3.996-8.816 8.928 0 4.933 3.946 8.929 8.816 8.929Zm0-13.393c2.435 0 4.408 1.998 4.408 4.464 0 2.467-1.973 4.465-4.408 4.465-2.435 0-4.408-1.998-4.408-4.465 0-2.466 1.973-4.464 4.408-4.464Z"/><path fill="#00BE64" d="M89.861 89.143c4.87 0 8.816-3.997 8.816-8.93 0-4.932-3.945-8.928-8.816-8.928-4.87 0-8.816 3.996-8.816 8.929 0 4.932 3.946 8.929 8.816 8.929Zm0-13.394c2.435 0 4.408 1.999 4.408 4.465 0 2.466-1.973 4.464-4.408 4.464-2.435 0-4.408-1.998-4.408-4.464s1.973-4.465 4.408-4.465Z"/><path fill="#fff" d="M72.23 107c4.87 0 8.816-3.996 8.816-8.929 0-4.932-3.946-8.928-8.817-8.928-4.87 0-8.816 3.996-8.816 8.928 0 4.933 3.946 8.929 8.816 8.929Zm0-13.393c2.434 0 4.407 1.998 4.407 4.464 0 2.467-1.972 4.465-4.408 4.465-2.435 0-4.408-1.998-4.408-4.465 0-2.466 1.973-4.464 4.408-4.464Z"/><path fill="#001E64" d="M72.23 89.143c4.87 0 8.816-3.997 8.816-8.93 0-4.932-3.946-8.928-8.817-8.928-4.87 0-8.816 3.996-8.816 8.929 0 4.932 3.946 8.929 8.816 8.929Zm0-13.394c2.434 0 4.407 1.999 4.407 4.465 0 2.466-1.972 4.464-4.408 4.464-2.435 0-4.408-1.998-4.408-4.464s1.973-4.465 4.408-4.465Z"/><path fill="#FFB900" d="M59.004 62.356c0-2.466-1.973-4.464-4.408-4.464-2.435 0-4.408 1.998-4.408 4.464 0 2.467 1.972 4.465 4.408 4.465 2.435 0 4.408-1.998 4.408-4.465ZM32.556 44.499c0 2.466 1.973 4.464 4.408 4.464 2.435 0 4.408-1.998 4.408-4.464s-1.973-4.464-4.408-4.464c-2.435 0-4.408 1.998-4.408 4.464Z"/><path fill="#FF7500" d="M54.596 40.035c-2.435 0-4.408 1.998-4.408 4.464s1.972 4.464 4.408 4.464c2.435 0 4.408-1.998 4.408-4.464s-1.973-4.464-4.408-4.464ZM45.78 48.963c-2.436 0-4.409 1.998-4.409 4.465 0 2.466 1.973 4.464 4.408 4.464 2.435 0 4.408-1.998 4.408-4.464s-1.972-4.465-4.408-4.465Z"/><path fill="#fff" d="M36.964 66.82c2.435 0 4.408-1.997 4.408-4.463 0-2.467-1.973-4.465-4.408-4.465-2.435 0-4.408 1.998-4.408 4.464 0 2.467 1.973 4.465 4.408 4.465ZM41.546 100.545c.745 0 1.348-.61 1.348-1.365V87.628h-2.696V99.18c0 .756.606 1.365 1.348 1.365Z"/><path fill="#fff" d="M43.752 78.483v5.314c0 .413-.33.743-.734.743a.74.74 0 0 1-.734-.743v-5.314a.738.738 0 0 0-.734-.743.74.74 0 0 0-.734.743v5.314c0 .413-.33.743-.734.743a.738.738 0 0 1-.734-.743v-5.314a.738.738 0 0 0-.734-.743.74.74 0 0 0-.734.743v5.936c0 2.049 1.584 3.811 3.608 3.846 2.062.04 3.748-1.644 3.748-3.725v-6.06a.738.738 0 0 0-.734-.744c-.42 0-.75.334-.75.747Z"/><path fill="#FF7500" d="M50.013 77.736c-.746 0-1.348.61-1.348 1.365v14.152h2.695V79.1a1.36 1.36 0 0 0-1.347-1.365Z"/><path fill="#FF7500" d="M50.014 100.545c2.031 0 3.678-1.668 3.678-3.725v-3.08c0-2.057-1.647-3.724-3.678-3.724-2.031 0-3.678 1.667-3.678 3.724v3.08c0 2.058 1.647 3.725 3.678 3.725Z"/></g><defs><clipPath id="a"><path fill="#fff" d="M0 0h92v107H0z"/></clipPath></defs></svg>