<svg xmlns="http://www.w3.org/2000/svg" width="352" height="107" fill="none"><g clip-path="url(#a)"><path fill="#003C96" d="M352-.145h-70.53v71.43H352V-.145Z"/><path fill="#003C96" d="M316.735 71.285H281.47V107h35.265V71.285Z"/><path fill="#001E64" d="M352 71.285h-35.266V107H352V71.285ZM246.208 35.57h-70.53V107h70.53V35.57ZM140.413 71.285h-35.266V107h35.266V71.285Z"/><path fill="#003C96" d="M281.469-.145h-35.265V35.57h35.265V-.145ZM140.413-.145h-35.266V35.57h35.266V-.145ZM281.469 35.57h-35.265v35.715h35.265V35.57ZM105.147-.145H69.882V35.57h35.265V-.145ZM175.677 35.57h-35.265v35.715h35.265V35.57Z"/><path fill="#003C96" d="M69.884-.145H34.62V35.57h35.265V-.145ZM246.209-.145h-35.266V35.57h35.266V-.145Z"/><path fill="#003C96" d="M34.62-.145H-.644V35.57h35.266V-.145ZM140.413 35.57h-35.266v35.715h35.266V35.57ZM105.147 71.285H69.882V107h35.265V71.285Z"/><path fill="#001E64" d="M105.147 35.57H69.882v35.715h35.265V35.57Z"/><path fill="#003C96" d="M175.677-.145h-35.265V35.57h35.265V-.145ZM175.677 71.285h-35.265V107h35.265V71.285ZM69.886 35.57H-.644V107h70.53V35.57ZM281.469 71.285h-35.265V107h35.265V71.285Z"/><path fill="#001E64" d="M210.943-.145h-35.265V35.57h35.265V-.145Z"/><path fill="#FFB900" d="M299.102 89.143c0-9.861-7.895-17.858-17.632-17.858 0 9.861 7.896 17.858 17.632 17.858Z"/><path fill="#001E64" d="M316.734 107c0-9.86-7.896-17.857-17.632-17.857 0 9.86 7.895 17.857 17.632 17.857ZM299.102 89.143c-9.736 0-17.632 7.996-17.632 17.857 9.74 0 17.632-7.996 17.632-17.857Z"/><path fill="#00BE64" d="M316.734 71.285c-9.737 0-17.632 7.997-17.632 17.858 9.736 0 17.632-7.997 17.632-17.858Z"/><path fill="#001E64" d="M255.02-.145c-4.87 0-8.816 3.997-8.816 8.93 0 4.932 3.946 8.928 8.816 8.928 4.871 0 8.817-3.996 8.817-8.929 0-4.928-3.946-8.929-8.817-8.929Zm0 13.394c-2.435 0-4.408-1.999-4.408-4.465 0-2.466 1.973-4.464 4.408-4.464 2.435 0 4.409 1.998 4.409 4.464s-1.974 4.464-4.409 4.464Z"/><path fill="#fff" d="M255.02 17.713c-4.87 0-8.816 3.996-8.816 8.929 0 4.932 3.946 8.928 8.816 8.928 4.871 0 8.817-3.996 8.817-8.928 0-4.933-3.946-8.93-8.817-8.93Zm0 13.393c-2.435 0-4.408-1.998-4.408-4.464 0-2.467 1.973-4.465 4.408-4.465 2.435 0 4.409 1.998 4.409 4.465 0 2.466-1.974 4.464-4.409 4.464Z"/><path fill="#FFB900" d="M272.654-.145c-4.87 0-8.816 3.997-8.816 8.93 0 4.932 3.946 8.928 8.816 8.928 4.87 0 8.817-3.996 8.817-8.929 0-4.928-3.947-8.929-8.817-8.929Zm0 13.394c-2.435 0-4.408-1.999-4.408-4.465 0-2.466 1.973-4.464 4.408-4.464 2.435 0 4.408 1.998 4.408 4.464s-1.973 4.464-4.408 4.464Z"/><path fill="#001E64" d="M272.654 17.713c-4.87 0-8.816 3.996-8.816 8.929 0 4.932 3.946 8.928 8.816 8.928 4.87 0 8.817-3.996 8.817-8.928 0-4.933-3.947-8.93-8.817-8.93Zm0 13.393c-2.435 0-4.408-1.998-4.408-4.464 0-2.467 1.973-4.465 4.408-4.465 2.435 0 4.408 1.998 4.408 4.465 0 2.466-1.973 4.464-4.408 4.464Z"/><path fill="#00BE64" d="M111.959 22.374c1.79 4.26 5.962 7.241 10.82 7.245-1.79-4.26-5.961-7.245-10.82-7.245Z"/><path fill="#FFB900" d="M131.596 14.74c0 4.932-3.945 8.928-8.816 8.928-4.87 0-8.816-3.996-8.816-8.929 0-4.932 3.946-8.928 8.816-8.928 4.871 0 8.816 3.996 8.816 8.928Z"/><path fill="#00BE64" d="M122.779 29.62c3.57 0 6.642-2.149 8.028-5.236-3.565-.004-6.641 2.147-8.028 5.235Z"/><path fill="#003C96" d="M127.187 14.74c0 2.466-1.973 4.464-4.408 4.464-2.435 0-4.408-1.998-4.408-4.465 0-2.466 1.973-4.464 4.408-4.464 2.435 0 4.408 1.998 4.408 4.464Z"/><path fill="#00BE64" d="M253.021 58.089c1.79 4.26 5.961 7.245 10.82 7.245-1.794-4.26-5.966-7.245-10.82-7.245Z"/><path fill="#FFB900" d="M272.653 50.45c0 4.933-3.946 8.929-8.816 8.929-4.87 0-8.816-3.996-8.816-8.929 0-4.932 3.946-8.928 8.816-8.928 4.87 0 8.816 4 8.816 8.928Z"/><path fill="#00BE64" d="M263.838 65.334c3.569 0 6.641-2.148 8.028-5.235-3.566-.004-6.642 2.143-8.028 5.235Z"/><path fill="#003C96" d="M268.246 50.45c0 2.466-1.973 4.465-4.408 4.465-2.435 0-4.408-1.999-4.408-4.465 0-2.466 1.973-4.464 4.408-4.464 2.435 0 4.408 2.002 4.408 4.464Z"/><path fill="#001E64" d="M158.046 71.285c9.736 0 17.632-7.996 17.632-17.857 0-9.861-7.896-17.858-17.632-17.858-9.737 0-17.633 7.997-17.633 17.858 0 9.86 7.896 17.857 17.633 17.857Zm0-26.786c4.87 0 8.816 3.996 8.816 8.929 0 4.932-3.946 8.928-8.816 8.928-4.871 0-8.817-3.996-8.817-8.928 0-4.933 3.946-8.929 8.817-8.929Z"/><path fill="#00BE64" d="M69.882 35.57c9.737 0 17.632-7.996 17.632-17.857 0-9.861-7.895-17.858-17.632-17.858V35.57Z"/><path fill="#fff" d="M105.146-.145c-9.737 0-17.632 7.997-17.632 17.858 0 9.86 7.895 17.857 17.632 17.857V-.145Z"/><path fill="#FFB900" d="M210.943 35.57c9.737 0 17.633-7.996 17.633-17.857 0-9.861-7.896-17.858-17.633-17.858V35.57Z"/><path fill="#00BE64" d="M246.204-.145c-9.737 0-17.633 7.997-17.633 17.858 0 9.86 7.896 17.857 17.633 17.857V-.145Z"/><path fill="#FFB900" d="M16.988 17.713C16.988 7.852 9.092-.145-.645-.145c0 9.865 7.892 17.858 17.633 17.858ZM34.62 35.57c0-9.86-7.896-17.857-17.633-17.857 0 9.86 7.892 17.857 17.633 17.857Z"/><path fill="#FF7500" d="M16.988 17.713c-9.737 0-17.633 7.996-17.633 17.857 9.737 0 17.633-7.996 17.633-17.857Z"/><path fill="#00BE64" d="M34.62-.145c-9.737 0-17.633 7.997-17.633 17.858 9.737 0 17.633-7.993 17.633-17.858ZM87.513 98.071c-4.87 0-8.816-3.996-8.816-8.928 0-4.933 3.946-8.93 8.816-8.93 4.87 0 8.817 3.997 8.817 8.93 0 4.932-3.946 8.928-8.817 8.928Z"/><path fill="#FF7500" d="M105.147 35.57c-19.477 0-35.265 15.99-35.265 35.715 19.477 0 35.265-15.989 35.265-35.715Z"/><path fill="#FFB900" d="M158.046 26.642c-4.87 0-8.817-3.997-8.817-8.93 0-4.931 3.947-8.928 8.817-8.928s8.816 3.996 8.816 8.929c0 4.932-3.95 8.929-8.816 8.929ZM166.861 107c4.871 0 8.817-3.996 8.817-8.929 0-4.932-3.946-8.928-8.817-8.928-4.87 0-8.816 3.996-8.816 8.928 0 4.933 3.946 8.929 8.816 8.929Zm0-13.393c2.435 0 4.408 1.998 4.408 4.464 0 2.467-1.973 4.465-4.408 4.465-2.435 0-4.408-1.998-4.408-4.465 0-2.466 1.973-4.464 4.408-4.464Z"/><path fill="#00BE64" d="M166.861 89.143c4.871 0 8.817-3.997 8.817-8.93 0-4.932-3.946-8.928-8.817-8.928-4.87 0-8.816 3.996-8.816 8.929 0 4.932 3.946 8.929 8.816 8.929Zm0-13.394c2.435 0 4.408 1.999 4.408 4.465 0 2.466-1.973 4.464-4.408 4.464-2.435 0-4.408-1.998-4.408-4.464s1.973-4.465 4.408-4.465Z"/><path fill="#fff" d="M149.229 107c4.871 0 8.817-3.996 8.817-8.929 0-4.932-3.946-8.928-8.817-8.928-4.87 0-8.816 3.996-8.816 8.928 0 4.933 3.946 8.929 8.816 8.929Zm0-13.393c2.435 0 4.408 1.998 4.408 4.464 0 2.467-1.973 4.465-4.408 4.465-2.435 0-4.408-1.998-4.408-4.465 0-2.466 1.973-4.464 4.408-4.464Z"/><path fill="#001E64" d="M149.229 89.143c4.871 0 8.817-3.997 8.817-8.93 0-4.932-3.946-8.928-8.817-8.928-4.87 0-8.816 3.996-8.816 8.929 0 4.932 3.946 8.929 8.816 8.929Zm0-13.394c2.435 0 4.408 1.999 4.408 4.465 0 2.466-1.973 4.464-4.408 4.464-2.435 0-4.408-1.998-4.408-4.464s1.973-4.465 4.408-4.465Z"/><path fill="#FFB900" d="M136.004 62.356c0-2.466-1.973-4.464-4.408-4.464-2.435 0-4.408 1.998-4.408 4.464 0 2.467 1.973 4.465 4.408 4.465 2.435 0 4.408-1.998 4.408-4.465ZM109.556 44.499c0 2.466 1.973 4.464 4.408 4.464 2.435 0 4.408-1.998 4.408-4.464s-1.973-4.464-4.408-4.464c-2.435 0-4.408 1.998-4.408 4.464Z"/><path fill="#FF7500" d="M131.596 40.035c-2.435 0-4.408 1.998-4.408 4.464s1.973 4.464 4.408 4.464c2.435 0 4.408-1.998 4.408-4.464s-1.973-4.464-4.408-4.464ZM122.779 48.963c-2.435 0-4.408 1.998-4.408 4.465 0 2.466 1.973 4.464 4.408 4.464 2.435 0 4.408-1.998 4.408-4.464s-1.973-4.465-4.408-4.465Z"/><path fill="#fff" d="M113.964 66.82c2.435 0 4.408-1.997 4.408-4.463 0-2.467-1.973-4.465-4.408-4.465-2.435 0-4.408 1.998-4.408 4.464 0 2.467 1.973 4.465 4.408 4.465Z"/><path fill="#00BE64" d="M347.592 98.071c0-2.466-1.973-4.464-4.408-4.464-2.436 0-4.409 1.998-4.409 4.464 0 2.467 1.973 4.465 4.409 4.465 2.435 0 4.408-1.998 4.408-4.465ZM321.143 80.214c0 2.466 1.973 4.464 4.408 4.464 2.435 0 4.408-1.998 4.408-4.464s-1.973-4.465-4.408-4.465c-2.435 0-4.408 1.999-4.408 4.465ZM343.184 75.75c-2.436 0-4.409 1.998-4.409 4.464s1.973 4.464 4.409 4.464c2.435 0 4.408-1.998 4.408-4.464s-1.973-4.465-4.408-4.465Z"/><path fill="#FFB900" d="M334.368 84.678c-2.435 0-4.408 1.998-4.408 4.465 0 2.466 1.973 4.464 4.408 4.464 2.435 0 4.408-1.998 4.408-4.464 0-2.467-1.973-4.465-4.408-4.465Z"/><path fill="#00BE64" d="M325.551 102.536c2.435 0 4.408-1.998 4.408-4.465 0-2.466-1.973-4.464-4.408-4.464-2.435 0-4.408 1.998-4.408 4.464 0 2.467 1.973 4.465 4.408 4.465Z"/><path fill="#FF7500" d="M52.25 35.57c7.837-9.86 7.837-25.85 0-35.715-7.834 9.865-7.834 25.854 0 35.715Z"/><path fill="#001E64" d="M40.496 35.57c7.838-9.86 7.838-25.85 0-35.715-7.837 9.865-7.837 25.854 0 35.715ZM64.006 35.57c7.838-9.86 7.838-25.85 0-35.715-7.837 9.865-7.837 25.854 0 35.715Z"/><path fill="#fff" d="M210.907 75.6c0 8.567 6.859 15.513 15.318 15.513 0-8.57-6.859-15.513-15.318-15.513Z"/><path fill="#FF7500" d="M187.073 51.457c0 13.33 10.673 24.139 23.835 24.139 0-13.33-10.672-24.139-23.835-24.139Z"/><path fill="#FF7500" d="M210.907 75.6c13.163 0 23.835-10.809 23.835-24.14-13.166-.003-23.835 10.806-23.835 24.14Z"/><path fill="#fff" d="M195.59 91.11c8.459 0 15.318-6.947 15.318-15.514-8.459.004-15.318 6.947-15.318 15.513ZM214.742 55.418a1.773 1.773 0 0 1-1.763-1.786c0-.987.788-1.786 1.763-1.786.975 0 1.763.799 1.763 1.786 0 .983-.788 1.786-1.763 1.786ZM207.075 55.418a1.773 1.773 0 0 1-1.763-1.786c0-.987.788-1.786 1.763-1.786.975 0 1.763.799 1.763 1.786 0 .983-.792 1.786-1.763 1.786Z"/><path fill="#AA2332" d="M193.31 25.025c3.247 0 6.288-.885 8.91-2.419l-8.91-15.631-8.91 15.631a17.585 17.585 0 0 0 8.91 2.419Z"/><path fill="#00BE64" d="M193.31 25.025c-3.247 0-6.288-.885-8.91-2.419l-1.339 2.348a20.204 20.204 0 0 0 10.249 2.785c3.736 0 7.232-1.015 10.249-2.785l-1.339-2.348a17.585 17.585 0 0 1-8.91 2.419Z"/><path fill="#550014" d="M191.109 20.447a.89.89 0 0 1-.882.892.889.889 0 0 1-.881-.892c0-.492.396-.893.881-.893.486 0 .882.397.882.893ZM197.271 20.447a.89.89 0 0 1-.882.892.889.889 0 0 1-.881-.892c0-.492.396-.893.881-.893.49 0 .882.397.882.893ZM194.192 15.038a.89.89 0 0 1-.882.893.889.889 0 0 1-.881-.893c0-.492.396-.893.881-.893.486 0 .882.398.882.893Z"/><path fill="#FFB900" d="M271.621 89.87c0-4.354-3.484-7.882-7.783-7.882s-7.783 3.528-7.783 7.882c0 4.355 3.484 7.883 7.783 7.883s7.783-3.528 7.783-7.883Z"/><path fill="#00BE64" d="M263.838 81.988c3.181 0 5.76-2.612 5.76-5.834-3.181.005-5.76 2.612-5.76 5.834Z"/><path fill="#fff" d="M118.546 100.545c.746 0 1.348-.61 1.348-1.365V87.628h-2.696V99.18c0 .756.606 1.365 1.348 1.365Z"/><path fill="#fff" d="M120.752 78.483v5.314c0 .413-.33.743-.734.743a.74.74 0 0 1-.734-.743v-5.314a.738.738 0 0 0-.734-.743.74.74 0 0 0-.734.743v5.314c0 .413-.33.743-.734.743a.738.738 0 0 1-.734-.743v-5.314a.738.738 0 0 0-.734-.743.74.74 0 0 0-.734.743v5.936c0 2.049 1.585 3.811 3.608 3.846 2.062.04 3.748-1.644 3.748-3.725v-6.06a.738.738 0 0 0-.734-.744c-.42 0-.75.334-.75.747Z"/><path fill="#FF7500" d="M127.013 77.736c-.746 0-1.348.61-1.348 1.365v14.152h2.695V79.1c0-.752-.605-1.365-1.347-1.365Z"/><path fill="#FF7500" d="M127.014 100.545c2.031 0 3.678-1.668 3.678-3.725v-3.08c0-2.057-1.647-3.724-3.678-3.724-2.031 0-3.678 1.667-3.678 3.724v3.08c0 2.058 1.647 3.725 3.678 3.725Z"/><path fill="#fff" d="M32.648 61.723v21.704h11.48c2.233 0 4.19-1.518 4.77-3.705L52.47 66.22c.598-2.27-1.088-4.496-3.406-4.496H32.648Z"/><path fill="#fff" d="m34.372 55.206-1.724 6.517h7.74l1.204-4.559c.637-2.403-1.154-4.767-3.612-4.767-1.69 0-3.17 1.153-3.608 2.809Z"/><path fill="#FFB900" d="M20.343 65.428 16.77 78.932c-.598 2.27 1.087 4.495 3.406 4.495h12.471V61.723h-7.538c-2.234 0-4.191 1.518-4.766 3.705Z"/><path fill="#fff" d="M316.735 15.817c-7.275 0-13.167 5.97-13.167 13.334 0 7.363 5.896 13.334 13.167 13.334 7.27 0 13.166-5.97 13.166-13.334 0-7.363-5.896-13.334-13.166-13.334Zm0 21.425c-4.413 0-7.989-3.623-7.989-8.091 0-4.468 3.576-8.09 7.989-8.09 4.412 0 7.989 3.622 7.989 8.09s-3.577 8.09-7.989 8.09Z"/><path fill="#FFB900" d="M334.209 29.151h-34.943c-2.319 0-4.008 2.226-3.406 4.496l3.573 13.503c.579 2.187 2.532 3.705 4.769 3.705h25.075c2.233 0 4.19-1.518 4.769-3.705l3.573-13.503c.594-2.266-1.091-4.496-3.41-4.496Z"/></g><defs><clipPath id="a"><path fill="#fff" d="M0 0h352v107H0z"/></clipPath></defs></svg>