<svg width="28" height="28" fill="none" xmlns="http://www.w3.org/2000/svg"><path d="M4.667 14a1.167 1.167 0 0 0 1.166 1.167h8.855l-2.683 2.672a1.167 1.167 0 0 0 0 1.657 1.166 1.166 0 0 0 1.656 0l4.667-4.667c.106-.111.19-.242.245-.385a1.167 1.167 0 0 0 0-.887 1.169 1.169 0 0 0-.245-.385l-4.666-4.666a1.172 1.172 0 0 0-1.657 1.656l2.683 2.672H5.833a1.167 1.167 0 0 0-1.167 1.167ZM19.832 2.335H8.167a3.5 3.5 0 0 0-3.5 3.5v3.5a1.167 1.167 0 1 0 2.333 0v-3.5a1.167 1.167 0 0 1 1.166-1.167h11.667A1.167 1.167 0 0 1 21 5.834v16.333a1.167 1.167 0 0 1-1.167 1.167H8.167A1.167 1.167 0 0 1 7 22.167v-3.5a1.167 1.167 0 0 0-2.333 0v3.5a3.5 3.5 0 0 0 3.5 3.5h11.666a3.5 3.5 0 0 0 3.5-3.5V5.834a3.5 3.5 0 0 0-3.5-3.5Z" fill="#fff"/></svg>