<svg width="44" height="44" viewBox="0 0 44 44" fill="none" xmlns="http://www.w3.org/2000/svg">
<path d="M28.6134 21.7337C27.2667 18.607 24.7334 16.667 22 16.667C19.2667 16.667 16.7334 18.607 15.3867 21.7337C15.35 21.8178 15.3311 21.9086 15.3311 22.0003C15.3311 22.0921 15.35 22.1829 15.3867 22.267C16.7334 25.3937 19.2667 27.3337 22 27.3337C24.7334 27.3337 27.2667 25.3937 28.6134 22.267C28.6501 22.1829 28.669 22.0921 28.669 22.0003C28.669 21.9086 28.6501 21.8178 28.6134 21.7337ZM22 26.0003C19.8867 26.0003 17.8867 24.4737 16.7334 22.0003C17.8867 19.527 19.8867 18.0003 22 18.0003C24.1134 18.0003 26.1134 19.527 27.2667 22.0003C26.1134 24.4737 24.1134 26.0003 22 26.0003ZM22 19.3337C21.4726 19.3337 20.9571 19.4901 20.5185 19.7831C20.08 20.0761 19.7382 20.4926 19.5364 20.9798C19.3345 21.4671 19.2817 22.0033 19.3846 22.5206C19.4875 23.0378 19.7415 23.513 20.1144 23.8859C20.4874 24.2589 20.9625 24.5129 21.4798 24.6158C21.9971 24.7186 22.5333 24.6658 23.0205 24.464C23.5078 24.2622 23.9243 23.9204 24.2173 23.4818C24.5103 23.0433 24.6667 22.5277 24.6667 22.0003C24.6667 21.2931 24.3858 20.6148 23.8857 20.1147C23.3856 19.6146 22.7073 19.3337 22 19.3337ZM22 23.3337C21.7363 23.3337 21.4785 23.2555 21.2593 23.109C21.04 22.9624 20.8691 22.7542 20.7682 22.5106C20.6673 22.2669 20.6409 21.9988 20.6923 21.7402C20.7438 21.4816 20.8708 21.244 21.0572 21.0575C21.2437 20.871 21.4813 20.7441 21.7399 20.6926C21.9986 20.6412 22.2667 20.6676 22.5103 20.7685C22.7539 20.8694 22.9622 21.0403 23.1087 21.2596C23.2552 21.4788 23.3334 21.7366 23.3334 22.0003C23.3334 22.3539 23.1929 22.6931 22.9429 22.9431C22.6928 23.1932 22.3537 23.3337 22 23.3337Z" fill="#2C2A29"/>
</svg>
