<svg width="8" height="12" viewBox="0 0 8 12" fill="none" xmlns="http://www.w3.org/2000/svg">
<g id="fa6-solid:k" clip-path="url(#clip0_676_31725)">
<path id="Vector" d="M7.49002 2.5123C7.76648 2.23945 7.75974 1.80547 7.47429 1.54121C7.18885 1.27695 6.73483 1.2834 6.45838 1.55625L2.97011 4.99375L1.93846 6.00781V2.0332C1.93846 1.65293 1.61706 1.3457 1.21923 1.3457C0.821406 1.3457 0.5 1.65293 0.5 2.0332V10.2832C0.5 10.6635 0.821406 10.9707 1.21923 10.9707C1.61706 10.9707 1.93846 10.6635 1.93846 10.2832V7.98437L3.39266 6.55137L6.38196 10.6764C6.60897 10.9879 7.05624 11.0652 7.38214 10.8504C7.70804 10.6355 7.78895 10.2059 7.56419 9.89433L4.41306 5.54375L7.49002 2.5123Z" fill="#2C2A29"/>
</g>
<defs>
<clipPath id="clip0_676_31725">
<rect width="7.19231" height="11" fill="white" transform="translate(0.5 0.5)"/>
</clipPath>
</defs>
</svg>
