<svg xmlns="http://www.w3.org/2000/svg" width="38" height="45" fill="none"><path fill="#00BE64" d="M.001 31.309c3.457 8.048 11.5 13.687 20.874 13.687C17.42 36.948 9.375 31.31.001 31.31Z"/><path fill="#FFB900" d="M37.883 16.873c0 9.32-7.614 16.873-17.008 16.873-9.395 0-17.008-7.557-17.008-16.873C3.867 7.553 11.48 0 20.875 0s17.008 7.553 17.008 16.873Z"/><path fill="#00BE64" d="M20.875 44.997A17.014 17.014 0 0 0 36.363 35.1a17.014 17.014 0 0 0-15.488 9.897Z"/><path fill="#003C96" d="M29.377 16.872c0 4.66-3.809 8.439-8.506 8.439s-8.506-3.779-8.506-8.439 3.809-8.438 8.506-8.438c4.702 0 8.506 3.778 8.506 8.438Z"/></svg>