<svg width="200" height="45" fill="none" xmlns="http://www.w3.org/2000/svg"><path d="M0 31.309c3.457 8.048 11.5 13.687 20.875 13.687C17.42 36.948 9.375 31.31 0 31.31Z" fill="#00BE64"/><path d="M37.884 16.873c0 9.32-7.614 16.873-17.009 16.873S3.866 26.189 3.866 16.873C3.866 7.553 11.48 0 20.876 0c9.394 0 17.008 7.553 17.008 16.873Z" fill="#FFB900"/><path d="M20.875 44.997a17.015 17.015 0 0 0 15.49-9.897 17.015 17.015 0 0 0-15.49 9.897Z" fill="#00BE64"/><path d="M29.378 16.872c0 4.66-3.81 8.439-8.507 8.439-4.697 0-8.506-3.779-8.506-8.439s3.809-8.438 8.506-8.438c4.702 0 8.507 3.778 8.507 8.438Z" fill="#003C96"/><path d="M130.309 16.873h7.115v27.355h-7.115V33.572h-12.421v10.656h-7.114V16.873h7.114v10.08h12.421v-10.08Zm10.469 6.785h8.859v20.575h7.114V23.658h8.748v-6.785h-24.721v6.785ZM200 38.276v5.814c-1.212.602-2.728.902-4.497.902-3.698 0-5.558-1.596-6.303-4.164l-.119.17c-2.15 2.682-5.132 3.994-8.99 3.994-3.694 0-6.839-1.369-9.485-4.156-2.592-2.791-3.915-6.236-3.915-10.287 0-4.047 1.323-7.44 3.915-10.23 2.646-2.791 5.791-4.213 9.485-4.213 3.691 0 6.574 1.202 8.699 3.652v-2.889h7.114v19.352c0 1.653.758 2.506 2.274 2.506.712.004 1.318-.146 1.822-.45Zm-10.919-7.727c0-2.243-.717-4.104-2.207-5.526-1.434-1.479-3.252-2.19-5.46-2.19-2.207 0-4.026.712-5.459 2.19-1.434 1.422-2.15 3.283-2.15 5.526s.716 4.103 2.15 5.582c1.433 1.422 3.256 2.133 5.459 2.133 2.208 0 4.026-.71 5.46-2.133 1.49-1.475 2.207-3.335 2.207-5.582ZM52.157 16.873l-.213 10.28c-.049 4.16-.2 6.215-.806 8.572-.557 2.255-1.618 2.893-3.285 2.893-.557 0-1.06-.05-1.466-.2v5.815c.557.3 1.466.45 2.678.45 5.001-.15 7.43-2.49 8.642-6.703.86-3.007 1.011-5.314 1.163-8.772l.16-5.55h8.834v20.575h7.114V16.877h-22.82v-.004Zm34.268 15.524c.766 4.673 4.497 6.2 8.286 6.2 2.506 0 5.136-.97 6.753-2.425l4.391 4.38C103.234 43.432 99.588 45 94.6 45c-6.983 0-15.403-4.087-15.403-14.443s8.109-14.443 14.993-14.443c8.712 0 12.316 4.058 12.316 8.613.004 7.43-9.53 10.868-20.08 7.67Zm12.36-6.874c0-2.12-2.117-3.071-4.488-3.071-3.625 0-6.762 1.515-7.716 5.42 7.38 2.116 12.205.54 12.205-2.349Z" fill="#fff"/></svg>