<svg width="28" height="28" fill="none" xmlns="http://www.w3.org/2000/svg"><path d="m24.873 11.142-2.205-.735 1.039-2.077A1.166 1.166 0 0 0 23.485 7L21 4.515a1.166 1.166 0 0 0-1.342-.222l-2.076 1.039-.735-2.205a1.167 1.167 0 0 0-1.097-.794h-3.5a1.167 1.167 0 0 0-1.108.794l-.735 2.205L8.33 4.293A1.167 1.167 0 0 0 7 4.515L4.515 7a1.167 1.167 0 0 0-.222 1.342l1.039 2.076-2.205.735a1.166 1.166 0 0 0-.794 1.097v3.5a1.167 1.167 0 0 0 .794 1.108l2.205.735-1.039 2.077A1.167 1.167 0 0 0 4.515 21L7 23.485a1.166 1.166 0 0 0 1.342.222l2.076-1.039.735 2.205a1.167 1.167 0 0 0 1.109.794h3.5a1.167 1.167 0 0 0 1.108-.794l.735-2.205 2.077 1.039A1.166 1.166 0 0 0 21 23.485L23.485 21a1.167 1.167 0 0 0 .222-1.342l-1.039-2.076 2.205-.735a1.167 1.167 0 0 0 .794-1.097v-3.5a1.166 1.166 0 0 0-.794-1.108Zm-1.54 3.768-1.4.467a2.332 2.332 0 0 0-1.353 3.29l.665 1.33-1.283 1.283-1.295-.7a2.334 2.334 0 0 0-3.255 1.353l-.467 1.4H13.09l-.467-1.4a2.333 2.333 0 0 0-3.29-1.353l-1.33.665-1.283-1.283.7-1.295a2.333 2.333 0 0 0-1.353-3.29l-1.4-.467v-1.82l1.4-.467a2.334 2.334 0 0 0 1.353-3.29l-.665-1.295 1.283-1.283 1.295.665a2.333 2.333 0 0 0 3.29-1.353l.467-1.4h1.82l.467 1.4a2.333 2.333 0 0 0 3.29 1.353l1.33-.665 1.283 1.283-.7 1.295a2.334 2.334 0 0 0 1.353 3.255l1.4.467v1.855ZM14 9.333a4.667 4.667 0 1 0 0 9.334 4.667 4.667 0 0 0 0-9.334Zm0 7a2.333 2.333 0 1 1 0-4.666 2.333 2.333 0 0 1 0 4.666Z" fill="#FFB900"/></svg>