<svg width="25" height="25" viewBox="0 0 25 25" fill="none" xmlns="http://www.w3.org/2000/svg">
<g id="Small Plus / 24 / Outline">
<path id="Vector" d="M17.583 11.75H13.083V7.25C13.083 7.05109 13.004 6.86032 12.8633 6.71967C12.7227 6.57902 12.5319 6.5 12.333 6.5C12.1341 6.5 11.9433 6.57902 11.8027 6.71967C11.662 6.86032 11.583 7.05109 11.583 7.25V11.75H7.08301C6.8841 11.75 6.69333 11.829 6.55268 11.9697C6.41203 12.1103 6.33301 12.3011 6.33301 12.5C6.33301 12.6989 6.41203 12.8897 6.55268 13.0303C6.69333 13.171 6.8841 13.25 7.08301 13.25H11.583V17.75C11.583 17.9489 11.662 18.1397 11.8027 18.2803C11.9433 18.421 12.1341 18.5 12.333 18.5C12.5319 18.5 12.7227 18.421 12.8633 18.2803C13.004 18.1397 13.083 17.9489 13.083 17.75V13.25H17.583C17.7819 13.25 17.9727 13.171 18.1133 13.0303C18.254 12.8897 18.333 12.6989 18.333 12.5C18.333 12.3011 18.254 12.1103 18.1133 11.9697C17.9727 11.829 17.7819 11.75 17.583 11.75Z" fill="#2C2A29"/>
</g>
</svg>
