<svg width="48" height="48" viewBox="0 0 48 48" fill="none" xmlns="http://www.w3.org/2000/svg">
<path d="M20 14H15C14.7348 14 14.4804 14.1054 14.2929 14.2929C14.1054 14.4804 14 14.7348 14 15V20C14 20.2652 14.1054 20.5196 14.2929 20.7071C14.4804 20.8946 14.7348 21 15 21C15.2652 21 15.5196 20.8946 15.7071 20.7071C15.8946 20.5196 16 20.2652 16 20V16H20C20.2652 16 20.5196 15.8946 20.7071 15.7071C20.8946 15.5196 21 15.2652 21 15C21 14.7348 20.8946 14.4804 20.7071 14.2929C20.5196 14.1054 20.2652 14 20 14ZM20 32H16V28C16 27.7348 15.8946 27.4804 15.7071 27.2929C15.5196 27.1054 15.2652 27 15 27C14.7348 27 14.4804 27.1054 14.2929 27.2929C14.1054 27.4804 14 27.7348 14 28V33C14 33.2652 14.1054 33.5196 14.2929 33.7071C14.4804 33.8946 14.7348 34 15 34H20C20.2652 34 20.5196 33.8946 20.7071 33.7071C20.8946 33.5196 21 33.2652 21 33C21 32.7348 20.8946 32.4804 20.7071 32.2929C20.5196 32.1054 20.2652 32 20 32ZM33 14H28C27.7348 14 27.4804 14.1054 27.2929 14.2929C27.1054 14.4804 27 14.7348 27 15C27 15.2652 27.1054 15.5196 27.2929 15.7071C27.4804 15.8946 27.7348 16 28 16H32V20C32 20.2652 32.1054 20.5196 32.2929 20.7071C32.4804 20.8946 32.7348 21 33 21C33.2652 21 33.5196 20.8946 33.7071 20.7071C33.8946 20.5196 34 20.2652 34 20V15C34 14.7348 33.8946 14.4804 33.7071 14.2929C33.5196 14.1054 33.2652 14 33 14ZM33 27C32.7348 27 32.4804 27.1054 32.2929 27.2929C32.1054 27.4804 32 27.7348 32 28V32H28C27.7348 32 27.4804 32.1054 27.2929 32.2929C27.1054 32.4804 27 32.7348 27 33C27 33.2652 27.1054 33.5196 27.2929 33.7071C27.4804 33.8946 27.7348 34 28 34H33C33.2652 34 33.5196 33.8946 33.7071 33.7071C33.8946 33.5196 34 33.2652 34 33V28C34 27.7348 33.8946 27.4804 33.7071 27.2929C33.5196 27.1054 33.2652 27 33 27Z" fill="#ABABAB"/>
</svg>
