<svg xmlns="http://www.w3.org/2000/svg" width="28" height="28" fill="none"><path fill="#fff" d="M7 15.166H2.333a1.167 1.167 0 0 0-1.167 1.167v9.333a1.167 1.167 0 0 0 1.167 1.167H7a1.167 1.167 0 0 0 1.166-1.167v-9.333A1.167 1.167 0 0 0 7 15.166Zm-1.167 9.333H3.5v-7h2.333v7Zm19.834-14H21a1.167 1.167 0 0 0-1.167 1.167v14A1.167 1.167 0 0 0 21 26.833h4.666a1.167 1.167 0 0 0 1.167-1.167v-14a1.167 1.167 0 0 0-1.166-1.167Zm-1.167 14h-2.334V12.833H24.5v11.666ZM16.333 1.166h-4.666A1.167 1.167 0 0 0 10.5 2.333v23.333a1.167 1.167 0 0 0 1.166 1.167h4.667a1.167 1.167 0 0 0 1.167-1.167V2.333a1.167 1.167 0 0 0-1.167-1.167Zm-1.166 23.333h-2.334v-21h2.333v21Z"/></svg>