<svg width="28" height="28" fill="none" xmlns="http://www.w3.org/2000/svg"><path d="M7 15.167H2.333a1.167 1.167 0 0 0-1.166 1.166v9.334a1.167 1.167 0 0 0 1.166 1.166H7a1.167 1.167 0 0 0 1.167-1.166v-9.334A1.167 1.167 0 0 0 7 15.167ZM5.833 24.5H3.5v-7h2.333v7Zm19.834-14H21a1.167 1.167 0 0 0-1.167 1.167v14A1.167 1.167 0 0 0 21 26.833h4.667a1.167 1.167 0 0 0 1.166-1.166v-14a1.167 1.167 0 0 0-1.166-1.167Zm-1.167 14h-2.333V12.833H24.5V24.5ZM16.333 1.167h-4.666A1.167 1.167 0 0 0 10.5 2.333v23.334a1.167 1.167 0 0 0 1.167 1.166h4.666a1.167 1.167 0 0 0 1.167-1.166V2.333a1.167 1.167 0 0 0-1.167-1.166ZM15.167 24.5h-2.334v-21h2.334v21Z" fill="#FFB900"/></svg>