<svg width="24" height="24" viewBox="0 0 24 24" fill="none" xmlns="http://www.w3.org/2000/svg">
<g id="Store / 24 / Outline">
<path id="Vector" d="M21.0248 11.05V19C21.0248 19.55 20.8291 20.021 20.4378 20.413C20.0465 20.805 19.5755 21.0007 19.0248 21H5.02481C4.47481 21 4.00381 20.804 3.61181 20.412C3.21981 20.02 3.02448 19.5493 3.02581 19V11.05C2.64248 10.7 2.34681 10.25 2.13881 9.7C1.93081 9.15 1.92648 8.55 2.12581 7.9L3.17581 4.5C3.30914 4.06667 3.54681 3.70833 3.88881 3.425C4.23081 3.14167 4.62581 3 5.07381 3H18.9738C19.4238 3 19.8155 3.13767 20.1488 3.413C20.4821 3.68833 20.7238 4.05067 20.8738 4.5L21.9238 7.9C22.1238 8.55 22.1198 9.14167 21.9118 9.675C21.7038 10.2083 21.4088 10.6667 21.0248 11.05ZM14.2248 10C14.6748 10 15.0165 9.84567 15.2498 9.537C15.4831 9.22833 15.5748 8.88267 15.5248 8.5L14.9748 5H13.0248V8.7C13.0248 9.05 13.1415 9.35433 13.3748 9.613C13.6081 9.87167 13.8915 10.0007 14.2248 10ZM9.72481 10C10.1081 10 10.4208 9.87067 10.6628 9.612C10.9048 9.35333 11.0255 9.04933 11.0248 8.7V5H9.07481L8.52481 8.5C8.45814 8.9 8.54548 9.25 8.78681 9.55C9.02814 9.85 9.34081 10 9.72481 10ZM5.27481 10C5.57481 10 5.83748 9.89167 6.06281 9.675C6.28814 9.45833 6.42548 9.18333 6.47481 8.85L7.02481 5H5.07481L4.07481 8.35C3.97481 8.68333 4.02914 9.04167 4.23781 9.425C4.44648 9.80833 4.79214 10 5.27481 10ZM18.7748 10C19.2581 10 19.6081 9.80833 19.8248 9.425C20.0415 9.04167 20.0915 8.68333 19.9748 8.35L18.9248 5H17.0248L17.5748 8.85C17.6248 9.18333 17.7625 9.45833 17.9878 9.675C18.2131 9.89167 18.4755 10 18.7748 10ZM5.02481 19H19.0248V11.95C18.9415 11.9833 18.8875 12 18.8628 12H18.7748C18.3248 12 17.9291 11.925 17.5878 11.775C17.2465 11.625 16.9088 11.3833 16.5748 11.05C16.2748 11.35 15.9331 11.5833 15.5498 11.75C15.1665 11.9167 14.7581 12 14.3248 12C13.8748 12 13.4538 11.9167 13.0618 11.75C12.6698 11.5833 12.3241 11.35 12.0248 11.05C11.7415 11.35 11.4121 11.5833 11.0368 11.75C10.6615 11.9167 10.2575 12 9.82481 12C9.34148 12 8.90414 11.9167 8.51281 11.75C8.12148 11.5833 7.77548 11.35 7.47481 11.05C7.12481 11.4 6.77914 11.646 6.43781 11.788C6.09648 11.93 5.70848 12.0007 5.27381 12H5.16081C5.11948 12 5.07381 11.9833 5.02381 11.95L5.02481 19Z" fill="#003C96"/>
</g>
</svg>
