<svg xmlns="http://www.w3.org/2000/svg" width="28" height="28" fill="none"><path fill="#fff" d="M17.232 6.848a1.167 1.167 0 0 0 1.586-.431A1.167 1.167 0 0 1 21 7a1.167 1.167 0 0 1-1.167 1.167 1.167 1.167 0 0 0 0 2.333A3.5 3.5 0 1 0 16.8 5.25a1.167 1.167 0 0 0 .432 1.598Zm5.016 8.319a1.166 1.166 0 0 0-1.306 1.003 8.167 8.167 0 0 1-8.109 7.163H6.312l.758-.758a1.167 1.167 0 0 0 0-1.645A8.167 8.167 0 0 1 12.833 7a1.167 1.167 0 1 0 0-2.333 10.5 10.5 0 0 0-8.166 17.045l-1.995 1.96a1.166 1.166 0 0 0-.245 1.271 1.166 1.166 0 0 0 1.073.724h9.333a10.5 10.5 0 0 0 10.419-9.182 1.169 1.169 0 0 0-1.004-1.318Zm-1.971-3.419a1.167 1.167 0 0 0-.677-.081l-.21.07-.21.105-.175.151a1.168 1.168 0 0 0-.245.374.98.98 0 0 0-.093.466c-.004.156.024.31.081.455.06.14.148.267.257.374a1.168 1.168 0 0 0 .828.338A1.167 1.167 0 0 0 21 12.833a.98.98 0 0 0-.093-.443 1.249 1.249 0 0 0-.63-.63v-.012Z"/></svg>