<svg width="300" height="68" fill="none" xmlns="http://www.w3.org/2000/svg"><path d="M0 47.31c5.185 12.162 17.25 20.684 31.313 20.684C26.128 55.832 14.063 47.31 0 47.31Z" fill="#00BE64"/><path d="M56.826 25.497c0 14.084-11.42 25.497-25.513 25.497-14.093 0-25.514-11.42-25.514-25.497C5.8 11.413 17.22 0 31.313 0c14.093 0 25.513 11.413 25.513 25.497Z" fill="#FFB900"/><path d="M31.313 67.994c10.327 0 19.223-6.133 23.234-14.956-10.327 0-19.222 6.134-23.234 14.956Z" fill="#00BE64"/><path d="M44.066 25.497c0 7.042-5.713 12.752-12.76 12.752-7.046 0-12.76-5.71-12.76-12.752 0-7.042 5.714-12.752 12.76-12.752 7.053 0 12.76 5.71 12.76 12.752ZM195.464 25.497h10.671v41.337h-10.671V50.73h-18.633v16.104H166.16V25.496h10.671v15.232h18.633V25.497Zm15.703 10.253h13.288v31.09h10.671V35.75h13.122V25.497h-37.081V35.75ZM300 57.84v8.785c-1.818.908-4.092 1.363-6.745 1.363-5.548 0-8.337-2.413-9.455-6.293l-.178.258c-3.226 4.052-7.698 6.035-13.485 6.035-5.541 0-10.259-2.07-14.228-6.28-3.889-4.219-5.873-9.425-5.873-15.546 0-6.115 1.984-11.241 5.873-15.459 3.969-4.218 8.687-6.366 14.228-6.366 5.535 0 9.86 1.817 13.049 5.519V25.49h10.671v29.242c0 2.498 1.136 3.788 3.409 3.788 1.069.006 1.978-.221 2.734-.682Zm-16.378-11.678c0-3.389-1.075-6.2-3.312-8.35-2.15-2.234-4.877-3.309-8.189-3.309-3.311 0-6.039 1.075-8.189 3.31-2.15 2.148-3.225 4.96-3.225 8.35 0 3.388 1.075 6.2 3.225 8.435 2.15 2.148 4.884 3.223 8.189 3.223 3.312 0 6.039-1.075 8.189-3.223 2.237-2.229 3.312-5.04 3.312-8.436ZM78.236 25.497l-.32 15.533c-.073 6.286-.3 9.393-1.21 12.954-.835 3.407-2.426 4.371-4.927 4.371-.835 0-1.59-.074-2.199-.3v8.785c.835.454 2.2.681 4.018.681 7.5-.227 11.144-3.763 12.962-10.13 1.29-4.543 1.518-8.03 1.745-13.255l.24-8.386h13.251v31.09h10.671V25.503H78.236v-.006Zm51.402 23.459c1.149 7.06 6.745 9.368 12.428 9.368 3.76 0 7.704-1.467 10.13-3.665l6.586 6.618C154.85 65.63 149.383 68 141.9 68c-10.475 0-23.105-6.176-23.105-21.826 0-15.649 12.164-21.825 22.491-21.825 13.067 0 18.473 6.133 18.473 13.015.006 11.23-14.296 16.423-30.121 11.592Zm18.54-10.388c0-3.205-3.176-4.642-6.733-4.642-5.437 0-10.142 2.29-11.574 8.19 11.071 3.199 18.307.817 18.307-3.548Z" fill="#003C96"/></svg>