<svg width="48" height="48" viewBox="0 0 48 48" fill="none" xmlns="http://www.w3.org/2000/svg">
<path d="M33.7099 14.2899C33.617 14.1962 33.5064 14.1218 33.3845 14.071C33.2627 14.0203 33.132 13.9941 32.9999 13.9941C32.8679 13.9941 32.7372 14.0203 32.6154 14.071C32.4935 14.1218 32.3829 14.1962 32.2899 14.2899L26.4999 20.0899V18.4999C26.4999 18.2347 26.3946 17.9804 26.207 17.7928C26.0195 17.6053 25.7652 17.4999 25.4999 17.4999C25.2347 17.4999 24.9804 17.6053 24.7928 17.7928C24.6053 17.9804 24.4999 18.2347 24.4999 18.4999V22.4999C24.5015 22.6306 24.5287 22.7597 24.5799 22.8799C24.6814 23.1243 24.8756 23.3185 25.1199 23.4199C25.2402 23.4712 25.3693 23.4984 25.4999 23.4999H29.4999C29.7652 23.4999 30.0195 23.3946 30.207 23.207C30.3946 23.0195 30.4999 22.7652 30.4999 22.4999C30.4999 22.2347 30.3946 21.9804 30.207 21.7928C30.0195 21.6053 29.7652 21.4999 29.4999 21.4999H27.9099L33.7099 15.7099C33.8037 15.617 33.8781 15.5064 33.9288 15.3845C33.9796 15.2627 34.0057 15.132 34.0057 14.9999C34.0057 14.8679 33.9796 14.7372 33.9288 14.6154C33.8781 14.4935 33.8037 14.3829 33.7099 14.2899ZM22.8799 24.5799C22.7597 24.5287 22.6306 24.5015 22.4999 24.4999H18.4999C18.2347 24.4999 17.9804 24.6053 17.7928 24.7928C17.6053 24.9804 17.4999 25.2347 17.4999 25.4999C17.4999 25.7652 17.6053 26.0195 17.7928 26.207C17.9804 26.3946 18.2347 26.4999 18.4999 26.4999H20.0899L14.2899 32.2899C14.1962 32.3829 14.1218 32.4935 14.071 32.6154C14.0203 32.7372 13.9941 32.8679 13.9941 32.9999C13.9941 33.132 14.0203 33.2627 14.071 33.3845C14.1218 33.5064 14.1962 33.617 14.2899 33.7099C14.3829 33.8037 14.4935 33.8781 14.6154 33.9288C14.7372 33.9796 14.8679 34.0057 14.9999 34.0057C15.132 34.0057 15.2627 33.9796 15.3845 33.9288C15.5064 33.8781 15.617 33.8037 15.7099 33.7099L21.4999 27.9099V29.4999C21.4999 29.7652 21.6053 30.0195 21.7928 30.207C21.9804 30.3946 22.2347 30.4999 22.4999 30.4999C22.7652 30.4999 23.0195 30.3946 23.207 30.207C23.3946 30.0195 23.4999 29.7652 23.4999 29.4999V25.4999C23.4984 25.3693 23.4712 25.2402 23.4199 25.1199C23.3185 24.8756 23.1243 24.6814 22.8799 24.5799Z" fill="#ABABAB"/>
</svg>
