<svg width="28" height="28" fill="none" xmlns="http://www.w3.org/2000/svg"><path d="M4.667 14a1.167 1.167 0 0 0 1.166 1.167h8.855l-2.683 2.671a1.164 1.164 0 0 0 0 1.657 1.165 1.165 0 0 0 1.657 0l4.666-4.667c.107-.11.19-.242.245-.385a1.167 1.167 0 0 0 0-.886 1.166 1.166 0 0 0-.245-.385l-4.666-4.667a1.172 1.172 0 1 0-1.657 1.657l2.683 2.671H5.833A1.167 1.167 0 0 0 4.667 14ZM19.833 2.333H8.167a3.5 3.5 0 0 0-3.5 3.5v3.5a1.167 1.167 0 1 0 2.333 0v-3.5a1.167 1.167 0 0 1 1.167-1.166h11.666A1.167 1.167 0 0 1 21 5.833v16.334a1.167 1.167 0 0 1-1.167 1.166H8.167A1.167 1.167 0 0 1 7 22.167v-3.5a1.167 1.167 0 0 0-2.333 0v3.5a3.5 3.5 0 0 0 3.5 3.5h11.666a3.5 3.5 0 0 0 3.5-3.5V5.833a3.5 3.5 0 0 0-3.5-3.5Z" fill="#FFB900"/></svg>