<svg xmlns="http://www.w3.org/2000/svg" width="28" height="28" fill="none"><path fill="#fff" d="m24.873 11.142-2.204-.735 1.038-2.076A1.166 1.166 0 0 0 23.485 7L21 4.516a1.167 1.167 0 0 0-1.341-.222l-2.077 1.038-.735-2.205a1.166 1.166 0 0 0-1.097-.793h-3.5a1.167 1.167 0 0 0-1.108.793l-.735 2.205L8.33 4.294A1.167 1.167 0 0 0 7 4.516L4.515 7a1.167 1.167 0 0 0-.221 1.341l1.038 2.077-2.205.735a1.167 1.167 0 0 0-.793 1.097v3.5a1.167 1.167 0 0 0 .793 1.108l2.205.735-1.038 2.077A1.166 1.166 0 0 0 4.514 21L7 23.486a1.167 1.167 0 0 0 1.342.221l2.076-1.038.736 2.205a1.167 1.167 0 0 0 1.108.793h3.5a1.166 1.166 0 0 0 1.108-.793l.735-2.205 2.077 1.038A1.166 1.166 0 0 0 21 23.486L23.485 21a1.168 1.168 0 0 0 .222-1.342l-1.038-2.077 2.204-.735a1.167 1.167 0 0 0 .794-1.096v-3.5a1.167 1.167 0 0 0-.794-1.109Zm-1.54 3.769-1.4.466a2.334 2.334 0 0 0-1.353 3.29l.665 1.33-1.283 1.284-1.295-.7a2.333 2.333 0 0 0-3.255 1.353l-.467 1.4H13.09l-.466-1.4a2.333 2.333 0 0 0-3.29-1.353l-1.33.665-1.284-1.284.7-1.295a2.333 2.333 0 0 0-1.353-3.29l-1.4-.466v-1.82l1.4-.467a2.333 2.333 0 0 0 1.353-3.29l-.665-1.295L8.04 6.756l1.295.665a2.333 2.333 0 0 0 3.29-1.354l.466-1.4h1.82l.467 1.4a2.335 2.335 0 0 0 3.29 1.354l1.33-.665 1.283 1.283-.7 1.295a2.333 2.333 0 0 0 1.354 3.255l1.4.467v1.855ZM14 9.334a4.666 4.666 0 1 0 0 9.333 4.666 4.666 0 0 0 0-9.333Zm0 7a2.334 2.334 0 1 1 0-4.667 2.334 2.334 0 0 1 0 4.667Z"/></svg>