<svg width="48" height="48" viewBox="0 0 48 48" fill="none" xmlns="http://www.w3.org/2000/svg">
<path d="M24 22C23.6044 22 23.2178 22.1173 22.8889 22.3371C22.56 22.5568 22.3036 22.8692 22.1522 23.2346C22.0009 23.6001 21.9613 24.0022 22.0384 24.3902C22.1156 24.7781 22.3061 25.1345 22.5858 25.4142C22.8655 25.6939 23.2219 25.8844 23.6098 25.9616C23.9978 26.0387 24.3999 25.9991 24.7654 25.8478C25.1308 25.6964 25.4432 25.44 25.6629 25.1111C25.8827 24.7822 26 24.3956 26 24C26 23.4696 25.7893 22.9609 25.4142 22.5858C25.0391 22.2107 24.5304 22 24 22ZM17 22C16.6044 22 16.2178 22.1173 15.8889 22.3371C15.56 22.5568 15.3036 22.8692 15.1522 23.2346C15.0009 23.6001 14.9613 24.0022 15.0384 24.3902C15.1156 24.7781 15.3061 25.1345 15.5858 25.4142C15.8655 25.6939 16.2219 25.8844 16.6098 25.9616C16.9978 26.0387 17.3999 25.9991 17.7654 25.8478C18.1308 25.6964 18.4432 25.44 18.6629 25.1111C18.8827 24.7822 19 24.3956 19 24C19 23.4696 18.7893 22.9609 18.4142 22.5858C18.0391 22.2107 17.5304 22 17 22ZM31 22C30.6044 22 30.2178 22.1173 29.8889 22.3371C29.56 22.5568 29.3036 22.8692 29.1522 23.2346C29.0009 23.6001 28.9613 24.0022 29.0384 24.3902C29.1156 24.7781 29.3061 25.1345 29.5858 25.4142C29.8655 25.6939 30.2219 25.8844 30.6098 25.9616C30.9978 26.0387 31.3999 25.9991 31.7654 25.8478C32.1308 25.6964 32.4432 25.44 32.6629 25.1111C32.8827 24.7822 33 24.3956 33 24C33 23.4696 32.7893 22.9609 32.4142 22.5858C32.0391 22.2107 31.5304 22 31 22Z" fill="#ABABAB"/>
</svg>
